# xmcd
#
# Track frame offsets: 
#        150
#        16213
#        29750
#        42662
#        57524
#        71189
#        85537
#        99079
#        112789
#        125607
#        134842
#        144820
#        157465
#        170539
#        185332
#        203290
#        220356
#        237154
#        252959
#        267157
#        282217
#        296309
#        310981
#        325506
#        339825
#        350971
#        365042
#        381196
#
# Disc length: 5281 seconds
#
# Revision: 0
# Processed by: cddbd v1.5.2PL0 Copyright (c) Steve Scherf et al.
# Submitted via: ExactAudioCopyFreeDBPlugin 1.0
#
DISCID=ae149f1c
DTITLE=Marion Meister - Julie Jewels - Perlenschein and Wahrheitszauber 
DTITLE=(CD 1)
DYEAR=2018
DGENRE=Jugend-Hörbuch
TTITLE0=Perlenschein and Wahrheitszauber [CD 1)
TTITLE1=Perlenschein and Wahrheitszauber [CD 1)
TTITLE2=Perlenschein and Wahrheitszauber [CD 1)
TTITLE3=Perlenschein and Wahrheitszauber [CD 1)
TTITLE4=Perlenschein and Wahrheitszauber [CD 1)
TTITLE5=Perlenschein and Wahrheitszauber [CD 1)
TTITLE6=Perlenschein and Wahrheitszauber [CD 1)
TTITLE7=Perlenschein and Wahrheitszauber [CD 1)
TTITLE8=Perlenschein and Wahrheitszauber [CD 1)
TTITLE9=Perlenschein and Wahrheitszauber [CD 1)
TTITLE10=Perlenschein and Wahrheitszauber [CD 1)
TTITLE11=Perlenschein and Wahrheitszauber [CD 1)
TTITLE12=Perlenschein and Wahrheitszauber [CD 1)
TTITLE13=Perlenschein and Wahrheitszauber [CD 1)
TTITLE14=Perlenschein and Wahrheitszauber [CD 1)
TTITLE15=Perlenschein and Wahrheitszauber [CD 1)
TTITLE16=Perlenschein and Wahrheitszauber [CD 1)
TTITLE17=Perlenschein and Wahrheitszauber [CD 1)
TTITLE18=Perlenschein and Wahrheitszauber [CD 1)
TTITLE19=Perlenschein and Wahrheitszauber [CD 1)
TTITLE20=Perlenschein and Wahrheitszauber [CD 1)
TTITLE21=Perlenschein and Wahrheitszauber [CD 1)
TTITLE22=Perlenschein and Wahrheitszauber [CD 1)
TTITLE23=Perlenschein and Wahrheitszauber [CD 1)
TTITLE24=Perlenschein and Wahrheitszauber [CD 1)
TTITLE25=Perlenschein and Wahrheitszauber [CD 1)
TTITLE26=Perlenschein and Wahrheitszauber [CD 1)
TTITLE27=Perlenschein and Wahrheitszauber [CD 1)
EXTD=
EXTT0=
EXTT1=
EXTT2=
EXTT3=
EXTT4=
EXTT5=
EXTT6=
EXTT7=
EXTT8=
EXTT9=
EXTT10=
EXTT11=
EXTT12=
EXTT13=
EXTT14=
EXTT15=
EXTT16=
EXTT17=
EXTT18=
EXTT19=
EXTT20=
EXTT21=
EXTT22=
EXTT23=
EXTT24=
EXTT25=
EXTT26=
EXTT27=
PLAYORDER=
